# xmcd CD database file
#
# Track frame offsets:
#	150
#	50002
#	66646
#	85338
#	101930
#	156412
#	172676
#	213052
#	242296
#	268274
#
# Disc length: 4019 seconds
#
# Revision: 0
# Processed by: cddbd v1.5.2PL0 Copyright (c) Steve Scherf et al.
# Submitted via: CDex 1.51
#
DISCID=8b0fb10a
DTITLE=Albert Mangelsdorff - Solo
DYEAR=2009
DGENRE=Jazz
TTITLE0=Blues Of A Cellar Lark
TTITLE1=Trombirds
TTITLE2=Yellow Hammer
TTITLE3=Introducing Marc Suetterlyn
TTITLE4=Espontaneo
TTITLE5=Sing A Simple Song For Change
TTITLE6=Do Your Own Thing
TTITLE7=Tromboneliness
TTITLE8=Creole Love Call
TTITLE9=Bonn
EXTD=YEAR: 2009
EXTT0=
EXTT1=
EXTT2=
EXTT3=
EXTT4=
EXTT5=
EXTT6=
EXTT7=
EXTT8=
EXTT9=
PLAYORDER=
